<?xml version="1.0" encoding="utf-8"?>
<!-- Generator: Adobe Illustrator 19.2.1, SVG Export Plug-In . SVG Version: 6.00 Build 0)  -->
<svg version="1.1" id="layer" xmlns="http://www.w3.org/2000/svg" xmlns:xlink="http://www.w3.org/1999/xlink" x="0px" y="0px"
	 viewBox="0 0 652 652" style="enable-background:new 0 0 652 652;" xml:space="preserve">
<style type="text/css">
	.st0{fill:#FF0000;}
</style>
<g>
	<path class="st0" d="M553.3,377.7c-0.5,0.3-0.6,0.8-0.5,1.3c0.2,0.5,0.3,0.6,0.8,0.8c0.8,0.2,1.9,0,2.6-0.6c0.3-0.3,0.5-0.6,0.5-1
		c0-0.2,0-0.2,0-0.3c-0.2-0.5-0.3-0.6-0.8-0.8C555,376.9,553.9,377.1,553.3,377.7"/>
	<path class="st0" d="M544,371.1c0.2,0.5,0.5,0.8,1,1c0.5,0.2,0.8,0,1.1-0.5c0.5-0.6,0.8-1.8,0.5-2.8c-0.2-0.5-0.3-0.6-0.6-0.8
		c0,0-0.2,0-0.3,0c-0.5-0.2-0.8,0-1.1,0.3C544,369.1,543.7,370.3,544,371.1"/>
	<path class="st0" d="M578.7,292h1l0.3-0.8c1-2.1,0-7.3-1.9-16.2l-0.6-3.1c-1.6-8.6-0.2-16.2,4.2-20.8c2.6-2.8,6.2-4.1,9.9-3.6
		c3.7,0.5,6.8,2.6,8.8,6c3.1,5.5,2.8,13.3-0.8,21.3l-1.5,2.9c-4.1,8.1-6.2,13-5.7,15.3l0.2,0.8l0.8,0.3c2.8,0.8,4.5,1,5.7,0.3
		c2.4-1.3,3.2-3.4,3.2-3.6c0.6-0.6,2.8-1.3,3.9-1.6c0.8,0.3,2.6,0.5,6,0.2c0.8,0.3,2.1,0.6,5.2,0.6c0,0.3,0.2,0.6,0.2,1
		c0,3.6-1.6,7.1-2.6,9.3c-0.8,1.5-5.8,4.7-15.3,9.9l-2.6,1.5l0.6,1.3c0,0,2.1,4.4,2.1,13.5c0,1.3,0,2.6-0.2,4.1
		c-0.8,11.7-9.3,20.6-9.3,20.6l-0.5,0.5l0.2,0.8c0.5,2.6,2.1,8.8,4.4,10.1c2.6,1.3,4.5,0.6,4.9,0.6c0.6,0.2,2.4,1.5,3.6,2.4
		c0.2,1,1,2.4,3.4,5.2c0.2,0.8,0.8,2.3,2.4,4.5c-2.8,2.6-6.8,3.6-9.3,4.1c-2.3,0.2-12-4.9-15.7-6.7l-3.4-1.6
		c-5.7-2.6-10.9,1.9-15.6,7.1c-5,5.5-11.7,5.7-11.8,5.7h-0.8l-2.8,5.2l-4.5,8.6c-0.3,0.8-1.1,1.9-2.8,2.4c-1.5,0.3-3.7,0.3-7-2.4
		c-2.3-1-3.6-2.1-4.4-4.1c-2.8-2.9-3.4-5.2-3.4-6.7c0-0.3,0-0.6,0-0.8c0.3-1.6,1.3-2.6,2.1-3.1l7.5-5.7l4.4-3.4v-1c0,0,0-0.5,0-1.1
		c0-1.9,0.5-6.2,4.1-10.5c2.6-3.1,3.4-5.5,3.4-7.5c0-2.8-1.8-4.4-2.6-5.2l-2.9-2.4c-2.9-2.4-12-9.7-12.7-11.4
		c-0.5-2.1-1.3-5-1.3-7.8c0-1.1,0.3-2.1,0.5-3.1c2.6,0.5,4.2,0.5,5,0.3c3.4,1,5,1.1,6,1c1,0.5,2.9,1.5,3.7,2.8l0,0
		c0,0.3,0.5,2.1,2.4,3.6c2.1,1.6,8.3,0.5,10.7-0.2l1.1-0.3c0,0,0-1.1,0-1.3c0-0.5,0.2-5.8,3.2-11.7c3.4-6.2,6.7-8.6,6.7-8.6l1.5-1
		l-2.9-2.9c-2.9-2.9-11-10.9-11.4-12.7c-0.3-1.6-0.6-3.9-0.6-6.2c0-1.6,0.5-3.2,1-4.7c2.8,0.8,4.1,0.8,4.7,0.6c3.4,1.5,5,1.8,6,1.6
		c1,0.6,2.8,1.8,3.4,3.1l0,0c0,0.3,0.3,2.1,2.1,3.7C573.9,292,575.8,292.2,578.7,292 M579.4,249c-3.7,3.9-5.7,9.7-5.7,16.4
		c0,2.3,0.2,4.5,0.6,7l0.6,3.2c0.6,2.9,2.3,10.2,2.3,13.3c0,0.2,0,0.2,0,0.3c-1.8,0-2.4-0.2-2.6-0.3c-1.1-1.1-1.3-2.3-1.3-2.3
		c-1.3-3.2-4.9-5.2-5.2-5.4l-0.3-0.2l-0.8,0.2c-0.6,0-2.9-0.6-5-1.6l-0.3-0.2l-0.8,0.2c-0.5,0.2-2.9-0.5-5-1.1l-1.1-0.3l-0.6,1.1
		c-1.3,2.3-1.6,4.9-1.6,7.3c0,2.4,0.3,4.5,0.6,6c0.5,2.6,4.7,7.1,12.3,14.8c0,0,0.3,0.3,0.6,0.6c-1.5,1.3-3.7,3.9-6.2,8.4
		c-2.9,5.2-3.4,9.9-3.6,12c-3.2,0.6-6.5,1-7.3,0.5c-1.3-1-1.5-2.1-1.5-2.1c-1.6-3.1-5.4-4.5-5.8-4.7l-0.3-0.2l-0.8,0.3
		c-0.6,0.2-2.9-0.3-5.2-1.1l-0.5-0.2l-0.8,0.3c-0.5,0.2-2.9-0.2-5-0.6l-1.1-0.3l-0.5,1.1c-0.6,1.8-1,3.6-1,5.4
		c0,3.1,0.8,6.2,1.3,8.1c0.6,2.6,5.4,6.7,13.8,13.5l2.8,2.3c0.6,0.6,1.6,1.5,1.6,3.1c0,1.3-0.6,3.1-2.8,5.5
		c-4.2,5-4.7,10.1-4.7,12.5c0,0.3,0,0.3,0,0.6c-1,0.8-3.2,2.6-3.2,2.6l-7.1,5.4c-1.8,1-3.2,2.9-3.6,5.2c0,0.3-0.2,0.8-0.2,1.3
		c0,2.1,0.8,5,3.9,8.3c0.8,2.1,2.8,3.9,5.4,4.9c3.9,3.2,7.1,3.2,9.3,2.6c2.1-0.6,3.9-2.1,4.7-4.2l4.2-8.1c0,0,1.5-2.6,1.9-3.7
		c1.9-0.2,8.1-1,13.1-6.5c5.4-6,8.9-7.8,12.2-6.3l3.2,1.6c11,5.7,15.4,7.5,17.2,7c3.4-0.6,9.1-1.8,12.3-5.7l0.8-1l-0.6-1
		c-1.5-1.8-2.8-3.9-2.8-4.5v-0.5l-0.3-0.6c-1.6-1.8-3.1-3.7-3.2-4.4l-0.3-0.6l-0.3-0.6c-0.3-0.3-3.2-3.1-6.2-3.4
		c-0.6,0.2-1.8,0.3-3.1-0.3c-0.6-0.5-1.9-3.9-2.8-7.5c1.6-1.8,8.8-10.2,9.6-21.9c0.2-1.5,0.2-2.9,0.2-4.2c0-7-1.1-11.4-1.9-13.3
		c0.2,0,0.3-0.2,0.3-0.2c11.2-6.2,15.4-9.1,16.2-10.9c1.1-2.4,3.1-6.7,3.1-10.9c0-1-0.2-1.8-0.3-2.8l-0.3-1.1h-1.3
		c-2.3,0.2-4.5,0-5.2-0.3l-0.3-0.2l-0.8-0.2c-2.3,0.3-4.7,0.3-5.2,0.2l-0.5-0.2l-0.8-0.2c-0.5,0.2-4.4,1-6.2,3.1
		c-0.3,0.6-0.6,1.6-2.1,2.4c0,0-0.8,0-2.3-0.3c0.5-2.8,3.9-9.7,5.4-12.5l1.5-2.9c2.1-4.7,3.1-9.3,3.1-13.6c0-3.7-0.8-7.3-2.4-10.2
		c-2.4-4.2-6.3-7-10.9-7.5C587.2,243.8,582.8,245.5,579.4,249"/>
	<path class="st0" d="M90.7,294.8v-22.1c0-9.4-9.7-15.4-20.3-15.4H40.7c-9.9,0-20.3,5.4-20.3,15.1v21.3v36.5c6.5,0,10.5-5.5,10.5-12
		v-8h39.4C83.6,310.2,90.7,301.9,90.7,294.8 M80,294.3c0,3.6-3.6,6.3-9.6,6.3H40.7c-6.2,0-9.6-2.8-9.6-6.3v-21.6
		c0-3.4,4.4-6.3,9.6-6.3h29.7c6,0,9.6,3.4,9.6,6.3C80,272.7,80,294.3,80,294.3z"/>
	<path class="st0" d="M112.3,253.4c0-6.5-4.1-12-10.5-12v57.1c0,6,4.7,11.5,10.5,11.5h5.7c0.8,0,1.9-0.6,1.9-1.5s-0.3-1.8-1.1-2.1
		c-0.6-0.3-1.3-0.3-1.9-0.5c-3.2-1.1-4.4-4.9-4.4-8.1L112.3,253.4z"/>
	<path class="st0" d="M267.6,330c11.2,0,15.6-6.5,18.2-13.8l20.8-58.9h-11.2l-11.8,36.5c-1.8,5.5-3.9,7.3-7.6,7.3h-0.8
		c-5.2,0-7.5-3.1-8.8-7.1l-9.7-31c-1.1-3.6-4.9-5.7-9.1-5.7h-31.3v-4.1c0-6.5-4.1-12-10.5-12v12c0,1.3-2.6,8-7.5,13h7.5l-0.2,32.3
		c0,6,4.7,11.5,10.5,11.5h5.7c0.8,0,1.9-0.6,1.9-1.5s-0.3-1.8-1.1-2.1c-0.6-0.3-1.3-0.3-1.9-0.5c-3.2-1.1-4.4-4.9-4.4-8.1v-31.5
		h23.4c4.2,0,7.3,0.2,9.3,5.8l7.3,23.4c2.4,8,8,14.8,19.2,14.8h0.8c1.6,0,2.3-1.3,2.3-1c0,1-1.9,4.7-2.3,5.5
		c-1.6,4.2-2.8,6.2-8.4,6.3h-4.4c-5.2,0-9.7,3.6-9.7,8.9L267.6,330z"/>
	<path class="st0" d="M379.6,294.8v-22.1c0-9.4-9.7-15.4-20.3-15.4h-29.7c-9.9,0-20.3,5.4-20.3,15.1v21.3v36.5
		c6.5,0,10.5-5.5,10.5-12v-8h39.4C372.5,310.2,379.6,301.9,379.6,294.8 M369.1,294.3c0,3.6-3.6,6.3-9.6,6.3h-29.7
		c-6.2,0-9.6-2.8-9.6-6.3v-21.6c0-3.4,4.4-6.3,9.6-6.3h29.7c6,0,9.6,3.4,9.6,6.3V294.3z"/>
	<path class="st0" d="M199,308.6c0-0.8-0.3-1.8-1.1-2.1c-0.6-0.3-1.3-0.3-1.9-0.5c-3.2-1.1-4.4-4.9-4.4-8.1v-26.3
		c0-8.9-10.1-14-20.3-14h-30.7c0,5.4,4.5,8.8,9.7,8.8h20.8c3.4,0,9.4,1.1,9.4,5.2c0,4.2-4.2,4.4-8.9,5l-31.2,4.1
		c-12.8,1.8-17.7,8.6-17.7,15.1c0,8.4,8.6,14.3,18.8,14.3h27.9c3.6,0,9.6-1.1,11-5.5v5.5h16.4C197.8,310.1,199,309.2,199,308.6
		 M180.6,294.8c0,3.7-4.4,6-9.1,6h-29.7c-6.2,0-8.4-2.3-8.4-5c0-3.2,2.1-5.8,8-6.5l31.5-3.9c5.7-0.8,8-0.6,8,1.8v7.6H180.6z"/>
	<path class="st0" d="M458,257.5v40.2c0,3.2,1.1,7.1,4.4,8.1c0.6,0.3,1.5,0.3,1.9,0.5c0.8,0.3,1.1,1.3,1.1,2.1c0,0.6-1,1.5-1.9,1.5
		h-16.2v-5.4c-0.8,2.9-5.5,5.4-9.1,5.4h-27.3c-15.4,0-20.3-10.1-20.3-15.1l0.2-37.5c6.5,0,10.5,5.5,10.5,12V295
		c0,2.8,3.6,5.8,9.6,5.8h26.8c6,0,9.6-3.1,9.6-5.8v-25.6C447.3,262.8,451.5,257.5,458,257.5"/>
	<path class="st0" d="M472.3,309.6c0-5.4,4.7-8.8,9.9-8.8h40.2c6.2,0,9.6-3.1,9.6-6c0-2.9-2.6-5.8-8.8-6.2l-32.1-1.9
		c-10.4-0.5-18.8-4.9-18.8-15.1c0-8.9,9.9-14.1,20.3-14.1h37.7c0,5.4-4.5,8.8-9.7,8.8l-28.1-0.2c-7.5,0-9.6,4.5-9.6,5.7
		c0,3.1,2.6,6,8.8,6.5l31.8,1.8c13,0.8,19,8.1,19,14.8c0,8.6-8.8,15.3-20,15.3h-50.1V309.6z"/>
	<path class="st0" d="M540,257.8c-0.8,0-1.6,0.2-2.3,0.6c-0.8,0.5-1.3,1-1.8,1.8c-0.5,0.8-0.6,1.6-0.6,2.4c0,0.8,0.2,1.6,0.6,2.4
		c0.5,0.8,1,1.3,1.8,1.8c0.8,0.5,1.5,0.6,2.3,0.6s1.6-0.2,2.3-0.6c0.8-0.5,1.3-1,1.8-1.8s0.6-1.6,0.6-2.4c0-0.8-0.2-1.6-0.6-2.4
		c-0.5-0.8-1-1.5-1.8-1.8C541.6,258.1,540.8,257.8,540,257.8 M540,256.8c1,0,1.8,0.3,2.8,0.8c1,0.5,1.6,1.3,2.1,2.1
		c0.5,1,0.8,1.9,0.8,2.9c0,1-0.3,1.9-0.8,2.9c-0.5,1-1.1,1.6-2.1,2.1c-0.8,0.5-1.8,0.8-2.8,0.8s-1.9-0.3-2.8-0.8
		c-0.8-0.5-1.6-1.3-2.1-2.1c-0.5-1-0.8-1.9-0.8-2.9s0.3-1.9,0.8-2.9c0.5-1,1.1-1.6,2.1-2.1C538,257.1,539,256.8,540,256.8"/>
	<path class="st0" d="M538.5,262.3h1.1c0.5,0,1-0.2,1.1-0.3s0.3-0.3,0.3-0.6c0-0.2,0-0.3-0.2-0.5s-0.2-0.3-0.5-0.3
		c-0.2,0-0.5-0.2-1-0.2h-1.1v1.9H538.5z M537.5,265.9v-6.3h2.1c0.6,0,1.3,0,1.6,0.2c0.3,0.2,0.5,0.3,0.8,0.6c0.2,0.3,0.3,0.6,0.3,1
		c0,0.5-0.2,0.8-0.5,1.1c-0.3,0.3-0.8,0.5-1.3,0.6c0.2,0.2,0.3,0.2,0.5,0.3c0.2,0.3,0.5,0.6,1,1.3l0.8,1.3h-1.1l-0.5-1
		c-0.5-0.8-0.8-1.3-1-1.5c-0.2-0.2-0.5-0.2-0.8-0.2h-0.6v2.6h-1.3V265.9z"/>
</g>
</svg>
