<?xml version="1.0" standalone="no"?>
<!DOCTYPE svg PUBLIC "-//W3C//DTD SVG 20010904//EN"
 "http://www.w3.org/TR/2001/REC-SVG-20010904/DTD/svg10.dtd">
<svg version="1.0" xmlns="http://www.w3.org/2000/svg"
 width="301.000000pt" height="167.000000pt" viewBox="0 0 301.000000 167.000000"
 preserveAspectRatio="xMidYMid meet" >

<g transform="translate(0.000000,167.000000) scale(0.100000,-0.100000)"
fill="#0d86df" stroke="none">
<path d="M460 1072 c0 -161 3 -172 54 -172 30 0 30 0 8 16 -21 14 -22 22 -22
144 0 104 -3 132 -16 144 -8 9 -17 16 -20 16 -2 0 -4 -67 -4 -148z"/>
<path d="M960 1193 c0 -16 -7 -40 -14 -55 -13 -24 -13 -28 0 -28 11 0 14 -19
14 -93 0 -103 7 -117 54 -116 17 0 24 3 16 6 -26 10 -30 25 -30 116 l0 87 68
0 c83 0 89 -5 121 -107 24 -78 47 -103 94 -103 27 0 27 -1 14 -27 -11 -19 -27
-30 -58 -37 -60 -15 -63 -36 -5 -36 70 0 88 22 146 190 27 80 50 146 50 148 0
1 -10 2 -22 2 -20 0 -27 -12 -52 -95 -16 -53 -35 -100 -43 -106 -7 -6 -24 -8
-38 -5 -21 5 -28 19 -51 94 -15 48 -31 93 -37 100 -6 8 -39 12 -98 12 -88 0
-89 0 -89 24 0 21 -22 56 -36 56 -2 0 -4 -12 -4 -27z"/>
<path d="M2846 1180 c5 -8 11 -35 15 -60 l6 -45 2 41 c0 23 -5 48 -15 60 -8
10 -12 12 -8 4z"/>
<path d="M2734 1155 c-3 -8 -4 -20 -2 -27 3 -7 7 -1 10 15 6 29 1 36 -8 12z"/>
<path d="M102 1128 c-31 -15 -33 -32 -30 -192 3 -133 4 -139 21 -122 9 10 17
32 17 52 l0 34 120 0 c116 0 122 1 147 26 23 23 25 31 21 101 -5 106 -15 113
-162 112 -61 0 -121 -5 -134 -11z m229 -28 c16 -9 19 -22 19 -80 0 -58 -3 -71
-19 -80 -25 -13 -161 -13 -195 0 -25 9 -26 14 -26 80 0 64 2 72 23 80 31 12
174 12 198 0z"/>
<path d="M652 1128 c3 -9 34 -15 87 -18 58 -4 84 -9 91 -20 16 -26 -10 -37
-123 -53 -116 -16 -147 -32 -147 -74 0 -12 9 -32 20 -43 18 -18 33 -20 128
-20 71 0 112 4 120 12 9 9 12 9 12 0 0 -8 16 -12 43 -11 23 0 35 3 27 6 -25
10 -30 25 -30 108 0 86 -3 96 -37 114 -31 16 -196 15 -191 -1z m186 -139 c5
-46 -19 -59 -114 -59 -79 0 -124 10 -124 28 1 25 26 37 107 48 118 16 127 15
131 -17z"/>
<path d="M1490 1127 c-25 -12 -25 -14 -30 -170 -3 -86 -2 -157 1 -157 16 0 39
40 39 68 l0 32 119 0 c145 0 161 8 169 88 7 79 -4 119 -38 137 -37 19 -223 21
-260 2z m231 -27 c16 -9 19 -22 19 -81 0 -65 -1 -70 -26 -79 -14 -6 -56 -10
-94 -10 -38 0 -80 4 -94 10 -25 9 -26 14 -26 80 0 64 2 72 23 80 31 12 174 12
198 0z"/>
<path d="M1850 1041 c0 -96 1 -100 26 -120 23 -18 41 -21 123 -21 62 0 101 4
109 12 9 9 12 9 12 0 0 -7 16 -12 42 -12 41 0 42 0 20 16 -20 14 -22 23 -22
120 0 57 -4 104 -8 104 -23 0 -32 -30 -32 -107 0 -80 -1 -84 -26 -93 -34 -13
-160 -13 -185 0 -16 9 -19 22 -19 86 0 73 -11 114 -30 114 -6 0 -10 -42 -10
-99z"/>
<path d="M2272 1128 c-25 -12 -37 -46 -28 -76 9 -28 48 -40 159 -47 109 -8
143 -24 112 -54 -12 -12 -44 -17 -142 -21 -89 -4 -128 -9 -131 -17 -3 -10 29
-13 138 -13 136 0 142 1 165 25 30 29 31 45 7 75 -20 25 -81 38 -180 39 -59 1
-92 14 -92 36 0 25 36 35 123 35 63 0 88 4 97 15 11 13 -1 15 -96 14 -60 0
-119 -5 -132 -11z"/>
<path d="M2732 1070 c0 -14 2 -19 5 -12 2 6 2 18 0 25 -3 6 -5 1 -5 -13z"/>
<path d="M2663 1029 c20 -6 42 -20 48 -30 16 -32 39 -23 38 14 -2 30 -2 30 -6
5 -5 -33 -10 -34 -31 -8 -10 11 -33 22 -52 25 l-35 5 38 -11z"/>
<path d="M2621 1004 c0 -11 3 -14 6 -6 3 7 2 16 -1 19 -3 4 -6 -2 -5 -13z"/>
<path d="M2840 984 c-17 -9 -20 -14 -9 -14 9 0 22 7 29 15 15 18 13 18 -20 -1z"/>
<path d="M2918 993 c7 -3 16 -2 19 1 4 3 -2 6 -13 5 -11 0 -14 -3 -6 -6z"/>
<path d="M2658 940 c25 -28 29 -39 20 -48 -7 -7 -9 -12 -6 -12 3 0 11 6 17 13
8 10 2 21 -27 48 l-37 34 33 -35z"/>
<path d="M2900 919 c-22 -18 -22 -19 -3 -10 12 6 25 16 28 21 9 15 3 12 -25
-11z"/>
<path d="M2850 890 c-8 -5 -12 -12 -9 -15 4 -3 12 1 19 10 14 17 11 19 -10 5z"/>
<path d="M2853 815 c0 -27 2 -38 4 -22 2 15 2 37 0 50 -2 12 -4 0 -4 -28z"/>
<path d="M2501 808 c2 -30 2 -30 6 -6 2 15 12 29 21 31 12 3 10 5 -5 6 -20 1
-23 -4 -22 -31z"/>
<path d="M2568 820 c12 -5 22 -14 22 -20 0 -16 53 -8 56 8 1 7 0 8 -3 2 -7
-15 -39 -12 -53 5 -7 8 -20 15 -29 14 -11 0 -9 -3 7 -9z"/>
<path d="M2530 745 c13 -14 26 -25 28 -25 3 0 -5 11 -18 25 -13 14 -26 25 -28
25 -3 0 5 -11 18 -25z"/>
<path d="M2827 727 l-17 -32 20 24 c17 20 26 41 18 41 -2 0 -11 -15 -21 -33z"/>
<path d="M2582 698 c7 -15 15 -23 17 -17 2 6 -4 18 -13 27 -15 15 -15 15 -4
-10z"/>
<path d="M2828 643 c7 -3 16 -2 19 1 4 3 -2 6 -13 5 -11 0 -14 -3 -6 -6z"/>
<path d="M2876 609 c13 -26 14 -33 2 -40 -21 -14 -46 -11 -88 11 -52 27 -64
25 -102 -11 l-33 -31 33 26 c40 31 51 32 102 6 46 -23 69 -25 94 -7 17 13 17
15 2 45 -9 18 -19 32 -22 32 -2 0 3 -14 12 -31z"/>
<path d="M2521 564 c-17 -14 -31 -34 -31 -43 0 -17 34 -61 47 -61 4 0 -3 10
-15 23 -30 32 -28 51 11 81 17 14 29 26 25 26 -3 0 -20 -12 -37 -26z"/>
<path d="M2600 501 c-11 -22 -27 -42 -35 -44 -11 -4 -10 -5 2 -3 10 1 27 18
38 38 11 21 27 39 35 42 12 3 11 4 -2 5 -11 1 -25 -14 -38 -38z"/>
</g>
</svg>
